<?xml version="1.0" encoding="UTF-8" standalone="no"?>
<svg
   xmlns:dc="http://purl.org/dc/elements/1.1/"
   xmlns:cc="http://creativecommons.org/ns#"
   xmlns:rdf="http://www.w3.org/1999/02/22-rdf-syntax-ns#"
   xmlns:svg="http://www.w3.org/2000/svg"
   xmlns="http://www.w3.org/2000/svg"
   xmlns:sodipodi="http://sodipodi.sourceforge.net/DTD/sodipodi-0.dtd"
   xmlns:inkscape="http://www.inkscape.org/namespaces/inkscape"
   viewBox="0 0 700 700"
   version="1.1"
   id="svg72"
   sodipodi:docname="azul-logo.svg"
   width="700"
   height="700"
   inkscape:export-filename="C:\Users\suitedoalex\sites\azul-logo-0.png"
   inkscape:export-xdpi="561.73999"
   inkscape:export-ydpi="561.73999"
   inkscape:version="0.92.4 (5da689c313, 2019-01-14)">
  <metadata
     id="metadata78">
    <rdf:RDF>
      <cc:Work
         rdf:about="">
        <dc:format>image/svg+xml</dc:format>
        <dc:type
           rdf:resource="http://purl.org/dc/dcmitype/StillImage" />
        <dc:title>Group</dc:title>
      </cc:Work>
    </rdf:RDF>
  </metadata>
  <defs
     id="defs76" />
  <sodipodi:namedview
     pagecolor="#ffffff"
     bordercolor="#666666"
     borderopacity="1"
     objecttolerance="10"
     gridtolerance="10"
     guidetolerance="10"
     inkscape:pageopacity="0"
     inkscape:pageshadow="2"
     inkscape:window-width="1600"
     inkscape:window-height="837"
     id="namedview74"
     showgrid="false"
     inkscape:zoom="0.49202847"
     inkscape:cx="581.2366"
     inkscape:cy="240.59682"
     inkscape:window-x="-8"
     inkscape:window-y="-8"
     inkscape:window-maximized="1"
     inkscape:current-layer="svg72" />
  <!-- Generator: Sketch 52.5 (67469) - http://www.bohemiancoding.com/sketch -->
  <title
     id="title2">Group</title>
  <desc
     id="desc4">Created with Sketch.</desc>
  <g
     id="Page-1"
     style="fill:none;fill-rule:evenodd;stroke:none;stroke-width:1"
     transform="matrix(4.0537968,0,0,4.0537968,781.79641,144.88623)"
     inkscape:export-filename="C:\Users\suitedoalex\sites\azul-logo-04.png"
     inkscape:export-xdpi="138.14207"
     inkscape:export-ydpi="138.14207">
    <g
       id="Group">
      <path
         d="m 70.307,10.72 h -6.78 V 21.8 c 0,3.667 -2.233,4.624 -3.71,4.624 -2.152,0 -3.35,-0.957 -3.35,-3.708 V 10.72 h -6.78 v 12.434 c 0,5.42 1.716,8.847 7.66,8.847 2.39,0 5.024,-1.313 6.3,-3.424 h 0.08 v 2.83 h 6.58 z"
         id="Path"
         inkscape:connector-curvature="0"
         style="fill:#18b4e9" />
      <path
         d="m 71.9,31.402 h 6.78 V 2.95 H 71.9 V 31.4 Z m -42.59,0 h 19.7 v -5.18 H 37.926 L 48.256,15.86 v -5.14 h -18.11 v 5.18 h 9.49 L 29.313,26.143 v 5.26 z m -29.31,0 h 7.617 l 1.794,-5.1 h 9.933 l 1.754,5.1 h 7.737 L 18.185,2.952 H 10.65 L 0,31.4 Z M 14.356,10.84 h 0.08 l 3.15,9.963 h -6.46 z"
         id="Shape"
         inkscape:connector-curvature="0"
         style="fill:#18b4e9;fill-rule:nonzero" />
      <polygon
         id="polygon8"
         points="109.949,4.42 108.093,4.42 108.095,2.96 109.949,2.96 "
         style="fill:#5061aa" />
      <polygon
         id="polygon10"
         points="106.935,24.656 101.26,24.656 101.26,18.606 106.935,18.606 "
         style="fill:#8b328a" />
      <polygon
         id="polygon12"
         points="108.722,28.21 104.992,28.21 104.992,25.95 108.722,25.95 "
         style="fill:#5d80c0" />
      <polygon
         id="polygon14"
         points="107.263,31.444 102.781,31.444 102.78,27.006 107.263,27.006 "
         style="fill:#e94e29" />
      <polygon
         id="polygon16"
         points="112.171,24.657 108.335,24.657 108.333,22.977 112.171,22.977 "
         style="fill:#d5262a" />
      <polygon
         id="polygon18"
         points="110.865,20.913 106.93,20.913 106.93,19.918 110.865,19.918 "
         style="fill:#f6a022" />
      <polygon
         id="polygon20"
         points="114.916,23.734 112.166,23.734 112.166,22.977 114.916,22.977 "
         style="fill:#6a95cd" />
      <polygon
         id="polygon22"
         points="110.69,19.92 106.93,19.92 106.93,15.1 110.69,15.1 "
         style="fill:#306fb6" />
      <polygon
         id="polygon24"
         points="106.936,18.607 99.586,18.607 99.586,11.404 106.936,11.404 "
         style="fill:#73c8dd" />
      <polygon
         id="polygon26"
         points="100.218,15.39 95.31,15.39 95.31,11.406 100.218,11.406 "
         style="fill:#92c143" />
      <polygon
         id="polygon28"
         points="109.994,11.457 101.678,11.457 101.678,4.66 109.994,4.66 "
         style="fill:#5061aa" />
      <polygon
         id="polygon30"
         points="116.743,19.683 110.683,19.683 110.683,12.286 116.743,12.286 "
         style="fill:#169bd6" />
      <polygon
         id="polygon32"
         points="114.917,22.996 109.729,22.996 109.73,16.496 114.917,16.496 "
         style="fill:#f6a022" />
      <polygon
         id="polygon34"
         points="110.768,24.651 106.93,24.651 106.93,20.898 110.768,20.898 "
         style="fill:#d5262a" />
      <polygon
         id="polygon36"
         points="109.639,25.975 104.685,25.975 104.687,23.255 109.639,23.255 "
         style="fill:#199aa6" />
      <polygon
         id="polygon38"
         points="115.97,22.281 114.91,22.281 114.91,19.024 115.97,19.024 "
         style="fill:#a5bfdf" />
      <polygon
         id="polygon40"
         points="119.513,13.771 116.741,13.771 116.74,12.057 119.513,12.057 "
         style="fill:#3fb7af" />
      <polygon
         id="polygon42"
         points="118.483,14.885 116.483,14.885 116.483,13.77 118.483,13.77 "
         style="fill:#ae2258" />
      <polygon
         id="polygon44"
         points="110.69,15.109 106.93,15.109 106.93,8.515 110.69,8.515 "
         style="fill:#79c199" />
      <polygon
         id="polygon46"
         points="115.741,12.285 110.685,12.285 110.683,5.86 115.741,5.86 "
         style="fill:#e5df1f" />
      <polygon
         id="polygon48"
         points="113.675,10.684 109.988,10.684 109.988,4.66 113.675,4.66 "
         style="fill:#33bacf" />
      <polygon
         id="polygon50"
         points="120,12.287 114.97,12.287 114.97,10.517 120,10.517 "
         style="fill:#6ca9db" />
      <polygon
         id="polygon52"
         points="118.148,10.519 115.746,10.519 115.746,6.637 118.148,6.637 "
         style="fill:#de5097" />
      <polygon
         id="polygon54"
         points="119.655,9.486 117.427,9.486 117.427,7.858 119.655,7.858 "
         style="fill:#604596" />
      <polygon
         id="polygon56"
         points="120,11.114 116.855,11.114 116.855,9.487 120,9.487 "
         style="fill:#fad803" />
      <path
         d="m 108.08,2.89 h 1.89 v 1.53 h -1.89 z m -6.402,0.047 h 3.43 V 6.74 h -3.43 z"
         id="path58"
         inkscape:connector-curvature="0"
         style="fill:#5061aa;fill-rule:nonzero" />
      <polygon
         id="polygon60"
         points="101.693,11.457 91.083,11.457 91.083,2.937 101.693,2.937 "
         style="fill:#0bb8e7" />
      <polygon
         id="polygon62"
         points="100.217,4.805 96.525,4.805 96.525,0 100.217,0 "
         style="fill:#41ad4c" />
      <polygon
         id="polygon64"
         points="95.7,13.4 88.85,13.4 88.85,10.73 95.7,10.73 "
         style="fill:#e7b720" />
      <polygon
         id="polygon66"
         points="107.76,4.66 105.1,4.66 105.1,0.436 107.76,0.436 "
         style="fill:#b9cf37" />
      <polygon
         id="polygon68"
         points="109.729,17.57 108.649,17.57 108.652,16.496 109.729,16.496 "
         style="fill:#92c143" />
    </g>
  </g>
  <g
     id="Page-1-3"
     style="fill:none;fill-rule:evenodd;stroke:none;stroke-width:1"
     transform="matrix(4.0537968,0,0,4.0537968,106.77219,285.13722)"
     inkscape:export-filename="C:\Users\suitedoalex\sites\azul-logo-03.png"
     inkscape:export-xdpi="138.14211"
     inkscape:export-ydpi="138.14211">
    <g
       id="Group-0">
      <path
         d="m 70.307,10.72 h -6.78 V 21.8 c 0,3.667 -2.233,4.624 -3.71,4.624 -2.152,0 -3.35,-0.957 -3.35,-3.708 V 10.72 h -6.78 v 12.434 c 0,5.42 1.716,8.847 7.66,8.847 2.39,0 5.024,-1.313 6.3,-3.424 h 0.08 v 2.83 h 6.58 z"
         id="Path-7"
         inkscape:connector-curvature="0"
         style="fill:#0e2b58;fill-opacity:1" />
      <path
         d="m 71.9,31.402 h 6.78 V 2.95 H 71.9 V 31.4 Z m -42.59,0 h 19.7 v -5.18 H 37.926 L 48.256,15.86 v -5.14 h -18.11 v 5.18 h 9.49 L 29.313,26.143 v 5.26 z m -29.31,0 h 7.617 l 1.794,-5.1 h 9.933 l 1.754,5.1 h 7.737 L 18.185,2.952 H 10.65 L 0,31.4 Z M 14.356,10.84 h 0.08 l 3.15,9.963 h -6.46 z"
         id="Shape-3"
         inkscape:connector-curvature="0"
         style="fill:#0e2b58;fill-opacity:1;fill-rule:nonzero" />
      <polygon
         id="polygon8-5"
         points="108.095,2.96 109.949,2.96 109.949,4.42 108.093,4.42 "
         style="fill:#5061aa" />
      <polygon
         id="polygon10-5"
         points="101.26,18.606 106.935,18.606 106.935,24.656 101.26,24.656 "
         style="fill:#8b328a" />
      <polygon
         id="polygon12-1"
         points="104.992,25.95 108.722,25.95 108.722,28.21 104.992,28.21 "
         style="fill:#5d80c0" />
      <polygon
         id="polygon14-3"
         points="102.78,27.006 107.263,27.006 107.263,31.444 102.781,31.444 "
         style="fill:#e94e29" />
      <polygon
         id="polygon16-5"
         points="108.333,22.977 112.171,22.977 112.171,24.657 108.335,24.657 "
         style="fill:#d5262a" />
      <polygon
         id="polygon18-0"
         points="106.93,19.918 110.865,19.918 110.865,20.913 106.93,20.913 "
         style="fill:#f6a022" />
      <polygon
         id="polygon20-1"
         points="112.166,22.977 114.916,22.977 114.916,23.734 112.166,23.734 "
         style="fill:#6a95cd" />
      <polygon
         id="polygon22-9"
         points="106.93,15.1 110.69,15.1 110.69,19.92 106.93,19.92 "
         style="fill:#306fb6" />
      <polygon
         id="polygon24-1"
         points="99.586,11.404 106.936,11.404 106.936,18.607 99.586,18.607 "
         style="fill:#73c8dd" />
      <polygon
         id="polygon26-3"
         points="95.31,11.406 100.218,11.406 100.218,15.39 95.31,15.39 "
         style="fill:#92c143" />
      <polygon
         id="polygon28-4"
         points="101.678,4.66 109.994,4.66 109.994,11.457 101.678,11.457 "
         style="fill:#5061aa" />
      <polygon
         id="polygon30-3"
         points="110.683,12.286 116.743,12.286 116.743,19.683 110.683,19.683 "
         style="fill:#169bd6" />
      <polygon
         id="polygon32-0"
         points="109.73,16.496 114.917,16.496 114.917,22.996 109.729,22.996 "
         style="fill:#f6a022" />
      <polygon
         id="polygon34-8"
         points="106.93,20.898 110.768,20.898 110.768,24.651 106.93,24.651 "
         style="fill:#d5262a" />
      <polygon
         id="polygon36-0"
         points="104.687,23.255 109.639,23.255 109.639,25.975 104.685,25.975 "
         style="fill:#199aa6" />
      <polygon
         id="polygon38-0"
         points="114.91,19.024 115.97,19.024 115.97,22.281 114.91,22.281 "
         style="fill:#a5bfdf" />
      <polygon
         id="polygon40-6"
         points="116.74,12.057 119.513,12.057 119.513,13.771 116.741,13.771 "
         style="fill:#3fb7af" />
      <polygon
         id="polygon42-4"
         points="116.483,13.77 118.483,13.77 118.483,14.885 116.483,14.885 "
         style="fill:#ae2258" />
      <polygon
         id="polygon44-1"
         points="106.93,8.515 110.69,8.515 110.69,15.109 106.93,15.109 "
         style="fill:#79c199" />
      <polygon
         id="polygon46-8"
         points="110.683,5.86 115.741,5.86 115.741,12.285 110.685,12.285 "
         style="fill:#e5df1f" />
      <polygon
         id="polygon48-0"
         points="109.988,4.66 113.675,4.66 113.675,10.684 109.988,10.684 "
         style="fill:#33bacf" />
      <polygon
         id="polygon50-4"
         points="114.97,10.517 120,10.517 120,12.287 114.97,12.287 "
         style="fill:#6ca9db" />
      <polygon
         id="polygon52-7"
         points="115.746,6.637 118.148,6.637 118.148,10.519 115.746,10.519 "
         style="fill:#de5097" />
      <polygon
         id="polygon54-5"
         points="117.427,7.858 119.655,7.858 119.655,9.486 117.427,9.486 "
         style="fill:#604596" />
      <polygon
         id="polygon56-0"
         points="116.855,9.487 120,9.487 120,11.114 116.855,11.114 "
         style="fill:#fad803" />
      <path
         d="m 108.08,2.89 h 1.89 v 1.53 h -1.89 z m -6.402,0.047 h 3.43 V 6.74 h -3.43 z"
         id="path58-0"
         inkscape:connector-curvature="0"
         style="fill:#5061aa;fill-rule:nonzero" />
      <polygon
         id="polygon60-0"
         points="91.083,2.937 101.693,2.937 101.693,11.457 91.083,11.457 "
         style="fill:#0bb8e7" />
      <polygon
         id="polygon62-6"
         points="96.525,0 100.217,0 100.217,4.805 96.525,4.805 "
         style="fill:#41ad4c" />
      <polygon
         id="polygon64-0"
         points="88.85,10.73 95.7,10.73 95.7,13.4 88.85,13.4 "
         style="fill:#e7b720" />
      <polygon
         id="polygon66-0"
         points="105.1,0.436 107.76,0.436 107.76,4.66 105.1,4.66 "
         style="fill:#b9cf37" />
      <polygon
         id="polygon68-0"
         points="108.652,16.496 109.729,16.496 109.729,17.57 108.649,17.57 "
         style="fill:#92c143" />
    </g>
  </g>
</svg>
