<?xml version="1.0" encoding="UTF-8" standalone="no"?>
<!-- Created with Inkscape (http://www.inkscape.org/) -->

<svg
   xmlns:dc="http://purl.org/dc/elements/1.1/"
   xmlns:cc="http://creativecommons.org/ns#"
   xmlns:rdf="http://www.w3.org/1999/02/22-rdf-syntax-ns#"
   xmlns:svg="http://www.w3.org/2000/svg"
   xmlns="http://www.w3.org/2000/svg"
   xmlns:sodipodi="http://sodipodi.sourceforge.net/DTD/sodipodi-0.dtd"
   xmlns:inkscape="http://www.inkscape.org/namespaces/inkscape"
   width="4096mm"
   height="4096mm"
   viewBox="0 0 4096 4096"
   version="1.1"
   id="svg1713"
   inkscape:export-filename="G:\Users\suitedoalex\sites\gol-logo-0.png"
   inkscape:export-xdpi="25.4"
   inkscape:export-ydpi="25.4"
   inkscape:version="0.92.2 (5c3e80d, 2017-08-06)"
   sodipodi:docname="gol-logo.svg">
  <defs
     id="defs1707" />
  <sodipodi:namedview
     id="base"
     pagecolor="#ffffff"
     bordercolor="#666666"
     borderopacity="1.0"
     inkscape:pageopacity="0.0"
     inkscape:pageshadow="2"
     inkscape:zoom="0.015467961"
     inkscape:cx="-5869.5641"
     inkscape:cy="3804.3587"
     inkscape:document-units="mm"
     inkscape:current-layer="layer1"
     showgrid="false"
     inkscape:window-width="1600"
     inkscape:window-height="837"
     inkscape:window-x="-8"
     inkscape:window-y="-8"
     inkscape:window-maximized="1" />
  <metadata
     id="metadata1710">
    <rdf:RDF>
      <cc:Work
         rdf:about="">
        <dc:format>image/svg+xml</dc:format>
        <dc:type
           rdf:resource="http://purl.org/dc/dcmitype/StillImage" />
        <dc:title></dc:title>
      </cc:Work>
    </rdf:RDF>
  </metadata>
  <g
     inkscape:label="Layer 1"
     inkscape:groupmode="layer"
     id="layer1"
     transform="translate(0,3799)">
    <g
       id="g208"
       transform="matrix(12.899052,0,0,-12.899052,2335.9004,-2411.438)"
       inkscape:export-xdpi="3.1221082"
       inkscape:export-ydpi="3.1221082">
      <path
         d="m 0,0 c -3.232,0 -6.393,-0.301 -9.459,-0.873 23.759,-4.438 41.742,-23.476 41.742,-48.521 0,-17.83 -14.454,-34.09 -32.283,-34.09 -3.291,0 -6.467,0.493 -9.459,1.409 -13.214,4.043 -22.824,16.336 -22.824,30.874 0,14.539 9.61,26.832 22.824,30.875 -2.991,0.915 -6.167,1.409 -9.459,1.409 -17.829,0 -32.283,-16.261 -32.283,-34.09 0,-25.046 17.984,-44.084 41.742,-48.521 3.066,-0.573 6.227,-0.873 9.459,-0.873 21.926,0 40.63,13.784 47.927,33.158 v 36.085 C 40.63,-13.784 21.926,0 0,0"
         style="fill:#d6d4d4;fill-opacity:1;fill-rule:nonzero;stroke:none"
         id="path210"
         inkscape:connector-curvature="0" />
    </g>
    <g
       id="g212"
       transform="matrix(12.899052,0,0,-12.899052,2213.8883,-2400.177)"
       inkscape:export-xdpi="3.1221082"
       inkscape:export-ydpi="3.1221082">
      <path
         d="m 0,0 c -3.065,0.573 -6.227,0.873 -9.459,0.873 -24.565,0 -45.089,-17.3 -50.055,-40.38 -0.168,-0.782 -0.864,-1.338 -1.664,-1.338 h -24.917 c -0.942,0 -1.707,-0.764 -1.707,-1.707 V -58.04 c 0,-0.943 0.764,-1.707 1.707,-1.707 h 21.888 c 0.942,0 1.706,-0.764 1.706,-1.707 v -7.686 c 0,-0.818 -0.292,-1.611 -0.826,-2.231 -5.92,-6.88 -14.687,-11.237 -24.475,-11.237 -17.828,0 -32.281,14.452 -32.281,32.281 0,17.828 14.453,32.281 32.281,32.281 5.013,0 9.758,-1.143 13.991,-3.182 0.802,-0.386 1.765,-0.107 2.22,0.658 l 7.942,13.365 c 0.5,0.842 0.194,1.937 -0.676,2.387 -7.033,3.635 -15.014,5.691 -23.477,5.691 -28.277,0 -51.2,-22.923 -51.2,-51.2 0,-28.278 22.923,-51.201 51.2,-51.201 15.026,0 28.539,6.474 37.904,16.784 0.682,0.751 1.854,0.751 2.536,0 9.366,-10.309 22.877,-16.784 37.903,-16.784 3.232,0 6.394,0.301 9.459,0.873 -23.758,4.438 -41.742,23.476 -41.742,48.521 0,17.83 14.454,34.09 32.283,34.09 3.291,0 6.467,-0.493 9.459,-1.409 13.214,-4.043 22.824,-16.336 22.824,-30.875 0,-14.538 -9.61,-26.831 -22.824,-30.874 2.992,-0.915 6.168,-1.408 9.459,-1.408 17.829,0 32.283,16.26 32.283,34.089 C 41.742,-23.475 23.758,-4.437 0,0 m 111.574,-81.157 h -33.58 c -0.942,0 -1.706,0.764 -1.706,1.707 v 77.148 c 0,0.943 -0.764,1.707 -1.707,1.707 H 59.093 c -0.943,0 -1.707,-0.764 -1.707,-1.707 v -94.344 c 0,-1.885 1.528,-3.414 3.413,-3.414 h 50.775 c 0.943,0 1.707,0.765 1.707,1.707 v 15.49 c 0,0.942 -0.764,1.706 -1.707,1.706"
         style="fill:#f68b1f;fill-opacity:1;fill-rule:nonzero;stroke:none"
         id="path214"
         inkscape:connector-curvature="0" />
    </g>
  </g>
</svg>
